<svg width="35" height="34" viewBox="0 0 35 34" fill="none" xmlns="http://www.w3.org/2000/svg">
<rect width="34" height="34" rx="17" transform="matrix(-1.19249e-08 -1 -1 1.19249e-08 34.2499 34)" fill="white"/>
<path d="M11.9543 26.5608C11.6731 26.2795 11.5151 25.8981 11.5151 25.5003C11.5151 25.1026 11.6731 24.7211 11.9543 24.4398L19.3793 17.0148L11.9543 9.58982C11.6811 9.30692 11.5299 8.92801 11.5333 8.53472C11.5367 8.14142 11.6945 7.7652 11.9726 7.48709C12.2507 7.20898 12.6269 7.05123 13.0202 7.04781C13.4135 7.04439 13.7924 7.19558 14.0753 7.46882L22.5608 15.9543C22.842 16.2356 23 16.6171 23 17.0148C23 17.4126 22.842 17.794 22.5608 18.0753L14.0753 26.5608C13.794 26.842 13.4126 27 13.0148 27C12.6171 27 12.2356 26.842 11.9543 26.5608Z" fill="black"/>
</svg>
