<svg width="35" height="34" viewBox="0 0 35 34" fill="none" xmlns="http://www.w3.org/2000/svg">
<path d="M23.0457 26.5608C23.3269 26.2795 23.4849 25.8981 23.4849 25.5003C23.4849 25.1026 23.3269 24.7211 23.0457 24.4398L15.6207 17.0148L23.0457 9.58982C23.319 9.30692 23.4702 8.92801 23.4667 8.53472C23.4633 8.14142 23.3056 7.7652 23.0275 7.48709C22.7493 7.20898 22.3731 7.05123 21.9798 7.04781C21.5865 7.04439 21.2076 7.19558 20.9247 7.46882L12.4392 15.9543C12.158 16.2356 12.0001 16.6171 12.0001 17.0148C12.0001 17.4126 12.158 17.794 12.4392 18.0753L20.9247 26.5608C21.206 26.842 21.5875 27 21.9852 27C22.383 27 22.7644 26.842 23.0457 26.5608Z" fill="white"/>
</svg>
